# xmcd
#
# Track frame offsets:
#	150
#	11225
#	29987
#	42075
#	51950
#	66925
#	77037
#	87475
#	99100
#	116912
#	128900
#	147737
#	161625
#	176837
#	190987
#	201437
#	209862
#	226612
#	242537
#	259962
#	275687
#	286812
#	301050
#	315975
#	328587
#
# Disc length: 4532 seconds
# Revision: 3
# Processed by: cddbd v1.5.2PL0 Copyright (c) Steve Scherf et al.
# Submitted via: dBpowerAMP V12.0
#
DISCID=7d11b219
DTITLE=Various Artist - Country Christmas, Vol. 2 [Collectables]
DYEAR=2000
DGENRE=Country
TTITLE0=Willie Nelson - Winter Wonderland
TTITLE1=Shelby Lynne - O Holy Night
TTITLE2=Merle Haggard - If We Make It Through December
TTITLE3=Sweethearts of the Rodeo - Jingle Bell Rock
TTITLE4=Randy Travis - The Christmas Song
TTITLE5=Tammy Wynette - Joy to the World
TTITLE6=George Jones - Jingle Bells
TTITLE7=Johnny Cash - The Little Drummer Boy
TTITLE8=Rosanne Cash - It Came Upon a Midnight Clear
TTITLE9=Chet Atkins - Let It Snow! Let It Snow! Let It Snow!
TTITLE10=Alabama - Santa Claus (I Still Believe in You)
TTITLE11=Dolly Parton - White Christmas
TTITLE12=Collin Raye - Winter Wonderland
TTITLE13=Marty Robbins - Hark! The Herald Angels Sing
TTITLE14=Tanya Tucker - Away in a Manger
TTITLE15=Ricky Van Shelton - Santa Claus Is Coming to Town
TTITLE16=Emmylou Harris - O Little Town of Bethlehem
TTITLE17=Ricky Skaggs - New Star Shining
TTITLE18=Doug Stone - A Christmas Card
TTITLE19=Charlie Daniels - Little Folks
TTITLE20=Charlie Rich - God Rest Ye Merry Gentlemen
TTITLE21=Mickey Gilley - Don't the Girls All Get Prettier Around Christmastime
TTITLE22=Joe Diffie - Leroy the Redneck Reindeer
TTITLE23=Roy Orbison - Pretty Paper
TTITLE24=Gene Autry - Here Comes Santa Claus
EXTD=
EXTT0=
EXTT1=
EXTT2=
EXTT3=
EXTT4=
EXTT5=
EXTT6=
EXTT7=
EXTT8=
EXTT9=
EXTT10=
EXTT11=
EXTT12=
EXTT13=
EXTT14=
EXTT15=
EXTT16=
EXTT17=
EXTT18=
EXTT19=
EXTT20=
EXTT21=
EXTT22=
EXTT23=
EXTT24=
PLAYORDER=
